<svg xmlns="http://www.w3.org/2000/svg" xmlns:xlink="http://www.w3.org/1999/xlink" width="700" height="700" version="1.1" viewBox="0 0 700 700"><title>icon</title><desc>Created with Sketch.</desc><defs><rect id="path-1" width="700" height="700" x="0" y="0" rx="25"/></defs><g id="Page-1" fill="none" fill-rule="evenodd" stroke="none" stroke-width="1"><g id="Artboard" transform="translate(-306.000000, -158.000000)"><g id="icon" transform="translate(306.000000, 158.000000)"><mask id="mask-2" fill="#fff"><use xlink:href="#path-1"/></mask><g id="bosun" mask="url(#mask-2)"><g transform="translate(-50.000000, 0.000000)"><g id="Group" fill="none" stroke="none" stroke-width="1" transform="translate(50.000000, 0.000000)"><rect id="Rectangle-path" width="700" height="350" x="0" y="0" fill="#4BA2D9"/><rect id="Rectangle-path" width="700" height="350" x="0" y="350" fill="#1F5296"/></g><path id="Shape" fill="#356EB6" stroke="#FFF" stroke-width="15" d="M200,150 L400,350 L200,550 L0,350 L200,150 Z"/><path id="Shape" fill="#356EB6" stroke="#FFF" stroke-width="15" d="M600,150 L800,350 L600,550 L400,350 L600,150 Z"/><rect id="Rectangle-6" width="6" height="700" x="197" y="0" fill="#FFF" stroke="none"/><rect id="Rectangle-6-Copy" width="6" height="700" x="397" y="0" fill="#FFF" stroke="none"/><rect id="Rectangle-6-Copy-2" width="6" height="700" x="597" y="0" fill="#FFF" stroke="none"/><circle id="Oval" cx="200" cy="150" r="62.5" fill="#1F5296" stroke="#FFF" stroke-width="25"/><circle id="Oval" cx="600" cy="150" r="62.5" fill="#1F5296" stroke="#FFF" stroke-width="25"/><circle id="Oval" cx="200" cy="550" r="62.5" fill="#4BA2D9" stroke="#FFF" stroke-width="25"/><circle id="Oval" cx="600" cy="550" r="62.5" fill="#4BA2D9" stroke="#FFF" stroke-width="25"/></g></g></g></g></g></svg>